# 3ds Max Wavefront OBJ Exporter v0.97b - (c)2007 guruware
# File Created: 09.04.2024 17:15:44

mtllib bamboo_planks.mtl

#
# object base2
#

v  30.0000 0.0000 -30.0000
v  30.0000 0.0000 -70.0000
v  70.0000 0.0000 -70.0000
v  70.0000 0.0000 -30.0000
# 4 vertices

vn 0.0000 -1.0000 -0.0000
# 1 vertex normals

vt 0.4969 0.8459 0.0000
vt 0.4969 0.9966 0.0000
vt 0.3426 0.9966 0.0000
vt 0.3426 0.8459 0.0000
# 4 texture coords

g base2
usemtl default
s 1
f 1/1/1 2/2/1 3/3/1 
f 3/3/1 4/4/1 1/1/1 
# 0 polygons - 2 triangles

#
# object base0
#

v  30.0000 0.0000 -30.0000
v  70.0000 0.0000 -30.0000
v  70.0000 100.0000 -30.0000
v  30.0000 100.0000 -30.0000
# 4 vertices

vn 0.0000 0.0000 1.0000
# 1 vertex normals

vt 0.0049 0.5044 0.0000
vt 0.3282 0.5044 0.0000
vt 0.3282 0.9964 0.0000
vt 0.0049 0.9964 0.0000
# 4 texture coords

g base0
usemtl default
s 2
f 5/5/2 6/6/2 7/7/2 
f 7/7/2 8/8/2 5/5/2 
# 0 polygons - 2 triangles

#
# object base1
#

v  70.0000 0.0000 -70.0000
v  30.0000 0.0000 -70.0000
v  30.0000 100.0000 -70.0000
v  70.0000 100.0000 -70.0000
# 4 vertices

vn 0.0000 0.0000 -1.0000
# 1 vertex normals

vt 0.0049 0.5044 0.0000
vt 0.3282 0.5044 0.0000
vt 0.3282 0.9964 0.0000
vt 0.0049 0.9964 0.0000
# 4 texture coords

g base1
usemtl default
s 2
f 9/9/3 10/10/3 11/11/3 
f 11/11/3 12/12/3 9/9/3 
# 0 polygons - 2 triangles

#
# object base3
#

v  30.0000 100.0000 -30.0000
v  70.0000 100.0000 -30.0000
v  70.0000 100.0000 -70.0000
v  30.0000 100.0000 -70.0000
# 4 vertices

vn 0.0000 1.0000 -0.0000
# 1 vertex normals

vt 0.3426 0.8459 0.0000
vt 0.4969 0.8459 0.0000
vt 0.4969 0.9966 0.0000
vt 0.3426 0.9966 0.0000
# 4 texture coords

g base3
usemtl default
s 1
f 13/13/4 14/14/4 15/15/4 
f 15/15/4 16/16/4 13/13/4 
# 0 polygons - 2 triangles

#
# object base5
#

v  70.0000 0.0000 -30.0000
v  70.0000 0.0000 -70.0000
v  70.0000 100.0000 -70.0000
v  70.0000 100.0000 -30.0000
# 4 vertices

vn 1.0000 0.0000 -0.0000
# 1 vertex normals

vt 0.0049 0.5044 0.0000
vt 0.3282 0.5044 0.0000
vt 0.3282 0.9964 0.0000
vt 0.0049 0.9964 0.0000
# 4 texture coords

g base5
usemtl default
s 4
f 17/17/5 18/18/5 19/19/5 
f 19/19/5 20/20/5 17/17/5 
# 0 polygons - 2 triangles

#
# object base4
#

v  30.0000 0.0000 -70.0000
v  30.0000 0.0000 -30.0000
v  30.0000 100.0000 -30.0000
v  30.0000 100.0000 -70.0000
# 4 vertices

vn -1.0000 0.0000 -0.0000
# 1 vertex normals

vt 0.0049 0.5044 0.0000
vt 0.3282 0.5044 0.0000
vt 0.3282 0.9964 0.0000
vt 0.0049 0.9964 0.0000
# 4 texture coords

g base4
usemtl default
s 4
f 21/21/6 22/22/6 23/23/6 
f 23/23/6 24/24/6 21/21/6 
# 0 polygons - 2 triangles

